<svg xmlns="http://www.w3.org/2000/svg" xmlns:xlink="http://www.w3.org/1999/xlink" width="200" zoomAndPan="magnify" viewBox="0 0 150 74.999997" height="100" preserveAspectRatio="xMidYMid meet" version="1.0"><defs><clipPath id="93a88d367a"><path d="M 77.296875 9.492188 L 112 9.492188 L 112 67.242188 L 77.296875 67.242188 Z M 77.296875 9.492188 " clip-rule="nonzero"/></clipPath><clipPath id="4a24b3fadd"><path d="M 113 9.492188 L 148 9.492188 L 148 67.242188 L 113 67.242188 Z M 113 9.492188 " clip-rule="nonzero"/></clipPath><clipPath id="5653956b36"><path d="M 38 9.75 L 72.363281 9.75 L 72.363281 67.242188 L 38 67.242188 Z M 38 9.75 " clip-rule="nonzero"/></clipPath><clipPath id="9fbaf6cd92"><path d="M 2 9.75 L 37 9.75 L 37 67.242188 L 2 67.242188 Z M 2 9.75 " clip-rule="nonzero"/></clipPath></defs><g clip-path="url(#93a88d367a)"><path fill="#2971ff" d="M 86.714844 67.511719 L 77.949219 59.296875 L 97.441406 38.496094 L 77.949219 17.707031 L 86.714844 9.492188 L 110.050781 34.386719 C 110.308594 34.664062 110.539062 34.960938 110.742188 35.28125 C 110.945312 35.597656 111.117188 35.933594 111.253906 36.285156 C 111.394531 36.636719 111.5 37 111.570312 37.371094 C 111.640625 37.742188 111.675781 38.117188 111.675781 38.496094 C 111.675781 38.871094 111.640625 39.246094 111.570312 39.617188 C 111.5 39.988281 111.394531 40.351562 111.253906 40.703125 C 111.117188 41.054688 110.945312 41.390625 110.742188 41.710938 C 110.539062 42.027344 110.308594 42.328125 110.050781 42.601562 Z M 86.714844 67.511719 " fill-opacity="1" fill-rule="nonzero"/></g><g clip-path="url(#4a24b3fadd)"><path fill="#2971ff" d="M 122.746094 67.511719 L 113.976562 59.296875 L 133.46875 38.496094 L 113.976562 17.707031 L 122.746094 9.492188 L 146.082031 34.386719 C 146.339844 34.664062 146.570312 34.960938 146.773438 35.28125 C 146.976562 35.597656 147.144531 35.933594 147.285156 36.285156 C 147.421875 36.636719 147.527344 37 147.597656 37.371094 C 147.671875 37.742188 147.707031 38.117188 147.707031 38.496094 C 147.707031 38.871094 147.671875 39.246094 147.597656 39.617188 C 147.527344 39.988281 147.421875 40.351562 147.285156 40.703125 C 147.144531 41.054688 146.976562 41.390625 146.773438 41.710938 C 146.570312 42.027344 146.339844 42.328125 146.082031 42.601562 Z M 122.746094 67.511719 " fill-opacity="1" fill-rule="nonzero"/></g><g clip-path="url(#5653956b36)"><path fill="#2971ff" d="M 63.28125 9.480469 L 72.050781 17.695312 L 52.558594 38.496094 L 72.050781 59.285156 L 63.28125 67.5 L 39.949219 42.601562 C 39.6875 42.328125 39.457031 42.027344 39.257812 41.710938 C 39.054688 41.390625 38.882812 41.054688 38.746094 40.703125 C 38.605469 40.351562 38.5 39.988281 38.429688 39.617188 C 38.359375 39.246094 38.324219 38.871094 38.324219 38.496094 C 38.324219 38.117188 38.359375 37.742188 38.429688 37.371094 C 38.5 37 38.605469 36.636719 38.746094 36.285156 C 38.882812 35.933594 39.054688 35.597656 39.257812 35.28125 C 39.457031 34.960938 39.6875 34.664062 39.949219 34.386719 Z M 63.28125 9.480469 " fill-opacity="1" fill-rule="nonzero"/></g><g clip-path="url(#9fbaf6cd92)"><path fill="#2971ff" d="M 27.253906 9.480469 L 36.019531 17.695312 L 16.527344 38.496094 L 36.019531 59.285156 L 27.253906 67.5 L 3.917969 42.601562 C 3.660156 42.328125 3.429688 42.027344 3.226562 41.710938 C 3.023438 41.390625 2.855469 41.054688 2.714844 40.703125 C 2.574219 40.351562 2.472656 39.988281 2.398438 39.617188 C 2.328125 39.246094 2.292969 38.871094 2.292969 38.496094 C 2.292969 38.117188 2.328125 37.742188 2.398438 37.371094 C 2.472656 37 2.574219 36.636719 2.714844 36.285156 C 2.855469 35.933594 3.023438 35.597656 3.226562 35.28125 C 3.429688 34.960938 3.660156 34.664062 3.917969 34.386719 Z M 27.253906 9.480469 " fill-opacity="1" fill-rule="nonzero"/></g></svg>